<?xml version="1.0" encoding="UTF-8"?>
<svg version="1.1" xmlns="http://www.w3.org/2000/svg" width="1024" height="1024">
<path d="M0 0 C337.92 0 675.84 0 1024 0 C1024 337.92 1024 675.84 1024 1024 C686.08 1024 348.16 1024 0 1024 C0 686.08 0 348.16 0 0 Z " fill="#FCFCFC" transform="translate(0,0)"/>
<path d="M0 0 C23.60422132 15.56992834 36.94013769 38.7286808 43.6875 65.6875 C44.5767308 70.48676337 45.20687433 75.30075704 45.80078125 80.14453125 C45.97701122 81.51650062 46.15418297 82.88834929 46.33221436 84.26008606 C46.80378467 87.91551369 47.26190273 91.5725007 47.71669388 95.23004913 C48.19506063 99.06289618 48.68413333 102.89437987 49.17163086 106.72607422 C49.96722554 112.99147218 50.75444427 119.25787731 51.53710938 125.52490234 C52.44266177 132.77187208 53.37200002 140.01552824 54.31245422 147.25804138 C54.97988932 152.40072626 55.63460036 157.54502002 56.28768921 162.68954468 C56.59152185 165.07056647 56.89889097 167.45114014 57.21011353 169.83120728 C58.62105075 180.65883332 59.93843924 191.41614036 60.0234375 202.34765625 C60.03282852 203.09967316 60.04221954 203.85169006 60.05189514 204.62649536 C59.97604299 211.62985948 58.03757168 217.21858272 53.6875 222.6875 C50.90487233 225.2460584 48.06303748 227.00812812 44.6875 228.6875 C43.94113281 229.07421875 43.19476563 229.4609375 42.42578125 229.859375 C33.46361295 234.17623094 24.67274143 235.05003446 14.8125 235.0625 C13.80058594 235.08699219 12.78867187 235.11148438 11.74609375 235.13671875 C3.31713961 235.16909629 -3.80955589 233.28920104 -11.125 229.0625 C-17.24960453 222.41292936 -21.05197628 213.49846015 -25.3125 205.6875 C-42.8025 205.6875 -60.2925 205.6875 -78.3125 205.6875 C-81.6125 211.6275 -84.9125 217.5675 -88.3125 223.6875 C-94.35014088 230.39598987 -101.29634791 233.95943986 -110.35473633 235.05566406 C-113.49608911 235.1861905 -116.60671324 235.18503813 -119.75 235.125 C-121.31331055 235.13563477 -121.31331055 235.13563477 -122.90820312 235.14648438 C-135.33341171 235.0463432 -147.56533738 232.2804935 -157.2265625 224.05859375 C-163.35253496 217.55540624 -164.62588072 210.19976139 -164.53125 201.52856445 C-164.04095855 192.9194624 -162.62536295 184.40017173 -161.375 175.875 C-161.06335961 173.70844366 -160.75250714 171.54177387 -160.44238281 169.375 C-159.76992442 164.68477701 -159.09269911 159.99527291 -158.41259766 155.30615234 C-157.34342582 147.92108282 -156.29461284 140.5332273 -155.24983025 133.14467812 C-154.45341553 127.51449347 -153.65430026 121.88469102 -152.85563278 116.25482559 C-152.56565514 114.20975168 -152.27610647 112.16461737 -151.98660278 110.11947632 C-148.47171809 85.30882723 -148.47171809 85.30882723 -146.68359375 74.37890625 C-146.57513123 73.70496826 -146.4666687 73.03103027 -146.35491943 72.33666992 C-143.15237964 53.31206573 -135.82733595 35.46111122 -123.3125 20.6875 C-122.89629395 20.18379883 -122.48008789 19.68009766 -122.05126953 19.16113281 C-107.79385484 2.02218568 -88.88320655 -7.83126167 -67.3125 -12.3125 C-66.69834229 -12.4875708 -66.08418457 -12.6626416 -65.45141602 -12.84301758 C-43.63739132 -17.63109765 -18.58302631 -11.78707848 0 0 Z " fill="#3AC988" transform="translate(460.3125,393.3125)"/>
<path d="M0 0 C1.24652344 -0.020625 2.49304688 -0.04125 3.77734375 -0.0625 C13.37954787 -0.10305841 21.61521082 0.66471569 28.87109375 7.44921875 C36.32471063 16.37419896 35.52376654 27.85946015 35.53271484 38.80102539 C35.53738957 40.17161724 35.54253421 41.54220755 35.54811096 42.91279602 C35.55934371 45.85324519 35.56780075 48.7936845 35.57423019 51.73414803 C35.58495591 56.38647813 35.60521052 61.03873673 35.62734985 65.69102478 C35.68912818 78.91646057 35.74332046 92.14189043 35.77636719 105.36743164 C35.7947192 112.68020731 35.82365543 119.99286138 35.8643719 127.30554765 C35.88541855 131.17111176 35.90089598 135.03652288 35.90317917 138.90214729 C35.90532837 142.53597227 35.92122501 146.16947784 35.94756889 149.80320549 C35.95816853 151.76766025 35.95401278 153.73217737 35.9493866 155.69665527 C35.96047958 156.87276871 35.97157257 158.04888214 35.98300171 159.26063538 C35.98796693 160.78731386 35.98796693 160.78731386 35.99303246 162.34483433 C36.45385533 165.84975722 37.55131292 168.23355299 39.375 171.25 C42.51702011 173.34468007 43.13229148 173.49053034 46.68774414 173.41357422 C47.99038963 173.39398148 47.99038963 173.39398148 49.3193512 173.37399292 C50.25681686 173.35112213 51.19428253 173.32825134 52.16015625 173.3046875 C54.15559175 173.27937288 56.15103485 173.25465262 58.14648438 173.23046875 C61.28434104 173.18105368 64.42179882 173.12533644 67.55932617 173.05810547 C70.59295993 172.99716889 73.62610021 172.96197583 76.66015625 172.9296875 C78.04510033 172.88930862 78.04510033 172.88930862 79.45802307 172.84811401 C87.30625142 172.78855789 93.56548962 174.9311676 100.25 179 C108.87881652 188.13639396 108.70329725 201.05211526 108.625 212.875 C108.63273438 214.050625 108.64046875 215.22625 108.6484375 216.4375 C108.62832303 225.38843697 108.27108886 233.04366917 102.375 240.25 C93.9175956 246.86883823 84.34748599 247.39532305 74.0222168 247.41113281 C73.22917145 247.41609772 72.4361261 247.42106262 71.61904907 247.42617798 C69.02076316 247.44066677 66.42253825 247.44757863 63.82421875 247.453125 C62.92958231 247.45595238 62.03494587 247.45877975 61.11319923 247.46169281 C56.38023209 247.47663015 51.647295 247.4858945 46.91430664 247.49023438 C42.05258714 247.49571614 37.19114808 247.51975373 32.32951641 247.54820633 C28.56575234 247.56692234 24.80205471 247.57204302 21.03824806 247.57357025 C19.24707313 247.57657624 17.45589879 247.58453441 15.66477013 247.59775543 C1.94788382 247.69179492 -10.33767398 247.01801072 -21.625 238.25 C-34.27993893 225.35012676 -33.92637994 207.74236638 -33.8996582 190.88037109 C-33.90401333 189.05248305 -33.90919912 187.22459682 -33.91514587 185.39671326 C-33.9284569 180.46507069 -33.9291237 175.53350513 -33.92658257 170.60184813 C-33.92550809 166.47405216 -33.93040808 162.34627147 -33.935188 158.2184788 C-33.94625453 148.47864856 -33.94673583 138.73885691 -33.94067383 128.99902344 C-33.93462751 118.96965201 -33.94696832 108.94042063 -33.9682439 98.91107309 C-33.98588022 90.27804085 -33.99185829 81.64505312 -33.98860615 73.01200354 C-33.98679737 67.86534853 -33.98938956 62.71879359 -34.00332069 57.572155 C-34.01592855 52.73423825 -34.01392701 47.89653972 -34.00090981 43.05862617 C-33.99855142 41.28900261 -34.00125211 39.51936353 -34.00953293 37.74975777 C-34.10863559 14.91640373 -34.10863559 14.91640373 -26.375 6.71875 C-18.43822932 0.05753175 -9.90873064 0.0402385 0 0 Z " fill="#3BC988" transform="translate(176.625,378.75)"/>
<path d="M0 0 C13.73485916 11.52225267 23.55974589 29.27365814 25.20532227 47.24194336 C25.30279745 49.51977147 25.32899447 51.78267735 25.3125 54.0625 C25.30512817 55.29141968 25.30512817 55.29141968 25.29760742 56.54516602 C24.86663216 79.40453611 15.87758936 98.59410007 -0.48193359 114.61132812 C-13.97047725 126.95015673 -30.73143204 133.63033434 -48.9375 133.375 C-49.99437012 133.36412354 -51.05124023 133.35324707 -52.14013672 133.34204102 C-69.61875971 132.98425984 -84.04257335 126.72338602 -97 115 C-97.75796875 114.33484375 -98.5159375 113.6696875 -99.296875 112.984375 C-114.41328157 98.91047922 -122.58742341 79.2073782 -123.4050293 58.70361328 C-123.71125156 38.51136361 -115.92186008 19.59987275 -102 5 C-73.33136234 -24.27309688 -31.56514207 -25.48811472 0 0 Z " fill="#FAFCFB" transform="translate(457,444)"/>
<path d="M0 0 C11.69159178 8.95011508 18.42318708 23.0159345 23.828125 36.359375 C24.17488281 37.21249268 24.52164063 38.06561035 24.87890625 38.94458008 C27.92398047 46.78424221 27.92398047 46.78424221 27.265625 50.734375 C24.60423499 53.39576501 22.64951417 53.30923653 18.953125 53.921875 C4.12250571 56.99706981 -8.57535677 65.94594535 -17.234375 78.359375 C-24.52275784 90.40664311 -26.1284999 101.37733364 -26.109375 115.359375 C-26.10883118 116.02634399 -26.10828735 116.69331299 -26.10772705 117.38049316 C-26.0558873 131.17816238 -24.88455236 144.64266841 -15.734375 155.734375 C-13.12477879 157.95721968 -10.51105308 160.064716 -7.7109375 162.04296875 C-4.54222963 166.35767175 -5.35024774 170.5554592 -5.734375 175.734375 C-5.8065625 176.82419678 -5.87875 177.91401855 -5.953125 179.03686523 C-6.88807559 191.35257162 -8.0372494 203.69869235 -11.171875 215.671875 C-11.36483154 216.41501953 -11.55778809 217.15816406 -11.7565918 217.92382812 C-13.50105999 224.00564302 -16.31403477 228.90064788 -21.171875 232.984375 C-21.72746094 233.46390625 -22.28304687 233.9434375 -22.85546875 234.4375 C-32.06686903 240.79547275 -45.65840999 240.72967557 -56.2890625 239.234375 C-65.82715906 237.42931587 -74.34500047 234.72574103 -80.44921875 226.78515625 C-89.31336744 212.64023813 -85.64135622 194.39410664 -84.16015625 178.5859375 C-83.99363482 176.74747795 -83.82787324 174.90894944 -83.66281128 173.07035828 C-83.31243788 169.17918074 -82.95822669 165.28838238 -82.60067749 161.39785767 C-81.66250055 151.18470221 -80.74747862 140.9694689 -79.8359375 130.75390625 C-79.7445645 129.73202147 -79.65319149 128.71013668 -79.55904961 127.65728569 C-78.33914974 113.98533473 -77.20110324 100.31048214 -76.1953125 86.62109375 C-76.11056577 85.47173088 -76.11056577 85.47173088 -76.02410698 84.29914856 C-75.54980663 77.85191933 -75.08140456 71.40431173 -74.64126587 64.95465088 C-71.32759474 16.49225721 -71.32759474 16.49225721 -55.63671875 1.765625 C-39.36549763 -11.77937742 -17.47969562 -11.38999521 0 0 Z " fill="#3AC988" transform="translate(612.734375,388.265625)"/>
<path d="M0 0 C0.87696533 0.00757324 1.75393066 0.01514648 2.6574707 0.02294922 C9.43113892 0.19487929 15.10346454 1.17795045 21.125 4.4375 C21.92035156 4.86160156 22.71570313 5.28570312 23.53515625 5.72265625 C34.25327127 12.14636792 39.82482538 22.655703 43.125 34.4375 C45.73466422 46.25597932 46.31737128 58.49291411 47.3671875 70.51953125 C47.5784717 72.89764072 47.790243 75.27570695 48.00247192 77.6537323 C48.56045481 83.91668397 49.11340203 90.18006858 49.66479492 96.44360352 C50.64310773 107.55276232 51.62769783 118.66136261 52.6171875 129.76953125 C52.72349236 130.96386906 52.82979721 132.15820686 52.93932343 133.38873672 C54.32644673 148.93964319 55.78002823 164.48147605 57.3828125 180.01171875 C57.46557308 180.81388132 57.54833366 181.61604389 57.63360214 182.44251442 C58.57360924 191.55969729 58.57360924 191.55969729 59.66403198 200.65974426 C61.15998765 212.91949962 61.39653773 225.07514986 53.9375 235.3671875 C47.37698128 242.86088345 37.64641498 246.7399689 27.84521484 247.64892578 C15.92990167 248.31767903 4.48534558 248.12677333 -5.12890625 240.21484375 C-17.43258486 227.69096508 -18.09063982 205.28940956 -19.65454102 188.73852539 C-19.84240563 186.77770149 -20.06238277 184.81999783 -20.2890625 182.86328125 C-20.51421879 179.54014113 -20.54279325 176.70753274 -19.875 173.4375 C-17.89429865 171.1932907 -15.85270553 169.83807958 -13.33203125 168.234375 C-5.55702247 162.54835904 -1.8156733 152.22727794 -0.3203125 143.0234375 C0.38584311 136.95204973 0.34898092 130.85472688 0.375 124.75 C0.395625 123.55955078 0.41625 122.36910156 0.4375 121.14257812 C0.50590724 105.41746396 -3.31952905 92.06292434 -13.4375 79.89453125 C-18.03308017 75.26212752 -23.3528464 71.84597757 -28.875 68.4375 C-29.55175781 68.00566406 -30.22851562 67.57382812 -30.92578125 67.12890625 C-36.63595148 63.8749955 -43.21274273 62.73244947 -49.55859375 61.26953125 C-52.875 60.4375 -52.875 60.4375 -53.875 59.4375 C-53.53994125 52.28720377 -51.69922429 46.63295822 -48.8125 40.125 C-48.4098291 39.20436768 -48.0071582 38.28373535 -47.59228516 37.33520508 C-44.35850842 30.13120304 -40.72387919 23.6989659 -35.875 17.4375 C-35.31296875 16.68339844 -34.7509375 15.92929687 -34.171875 15.15234375 C-25.66103116 4.51378895 -13.34327481 -0.16220479 0 0 Z " fill="#3AC988" transform="translate(730.875,379.5625)"/>
<path d="M0 0 C1.06347656 -0.00708984 2.12695312 -0.01417969 3.22265625 -0.02148438 C13.05918537 0.05696647 21.51781467 1.46505699 28.80859375 8.40234375 C34.39875231 15.12860844 35.6502858 22.8348078 35.64044189 31.30992126 C35.64341302 32.10862642 35.64638414 32.90733158 35.6494453 33.73023993 C35.65812527 36.40993291 35.65963998 39.08958118 35.66113281 41.76928711 C35.66576168 43.68964737 35.67078643 45.61000672 35.67617798 47.53036499 C35.68930197 52.75190851 35.69574756 57.97343916 35.70018864 63.1949966 C35.70312085 66.46022066 35.70722606 69.72544123 35.71169281 72.99066353 C35.72537101 83.2150165 35.7350347 93.43936145 35.7388947 103.66372293 C35.743369 115.44969905 35.76088635 127.23555882 35.7898953 139.02149957 C35.81155633 148.14018169 35.82160143 157.25883119 35.82293582 166.37753874 C35.82398117 171.8189625 35.8298307 177.26027694 35.84775543 182.70167351 C35.86431143 187.82756986 35.86635524 192.95327563 35.85761642 198.0791893 C35.85684993 199.95236664 35.86113721 201.82555454 35.87107468 203.69870567 C36.00646001 230.82714881 36.00646001 230.82714881 28.5 239.4375 C22.12966435 245.80783565 13.97181417 246.82761803 5.31054688 246.89648438 C4.23869141 246.88939453 3.16683594 246.88230469 2.0625 246.875 C0.99451172 246.89498047 -0.07347656 246.91496094 -1.17382812 246.93554688 C-9.58888974 246.93040634 -16.59358965 245.40976875 -23.375 240.25 C-33.54091119 226.79511755 -32.65130538 209.33664575 -32.64526367 193.31542969 C-32.64826203 191.71567711 -32.6516661 190.11592525 -32.65544128 188.51617432 C-32.66422222 184.1972334 -32.66661705 179.87831235 -32.66725707 175.55936337 C-32.66797158 172.84864793 -32.67011355 170.13793741 -32.67275429 167.42722321 C-32.68199216 157.93422632 -32.68609162 148.44124342 -32.68530273 138.94824219 C-32.68470418 130.16034049 -32.69521618 121.37250061 -32.7110464 112.58461452 C-32.72422202 104.99428422 -32.72948239 97.40397386 -32.72884732 89.81363225 C-32.72859502 85.30093155 -32.73129487 80.78828572 -32.74202538 76.27559662 C-32.86421366 20.94204008 -32.86421366 20.94204008 -24.875 6.5 C-17.7212701 0.28755035 -9.0758874 -0.17051667 0 0 Z " fill="#3BC988" transform="translate(845.5,379.5625)"/>
<path d="M0 0 C9.81200129 7.23652591 16.43936756 16.33560883 20 28 C20.54539989 31.64586527 20.62163081 35.19305705 20.5625 38.875 C20.55226807 39.83881592 20.54203613 40.80263184 20.53149414 41.7956543 C20.18678297 53.37814489 16.18915611 62.71525063 8 71 C4.83952518 73.681615 1.56975588 75.8995034 -2 78 C-2.70125 78.43570313 -3.4025 78.87140625 -4.125 79.3203125 C-13.47520486 84.09559569 -26.71682982 83.49473312 -36.7109375 81.1171875 C-47.78369257 76.81902293 -55.822911 69.69377874 -60.9609375 59 C-66.59976815 45.15415841 -66.44462611 30.87446778 -61 17 C-59.33910707 13.92053287 -57.43349832 11.50411323 -55 9 C-54.01 7.96939453 -54.01 7.96939453 -53 6.91796875 C-39.40610362 -6.16615652 -16.46355815 -10.43259446 0 0 Z " fill="#3AC988" transform="translate(685,468)"/>
<path d="M0 0 C2.0396386 1.44361518 3.88591759 2.97762015 5.74609375 4.64453125 C6.36226563 5.15757812 6.9784375 5.670625 7.61328125 6.19921875 C15.32391929 13.11562798 19.22911843 23.4807304 19.96484375 33.67578125 C20.32109897 46.38221744 16.84613182 57.36075 8.18359375 66.83203125 C-1.46641574 75.98857434 -13.57398491 79.0987837 -26.53125 78.89453125 C-37.05284961 78.18793904 -46.37372144 73.56310873 -54.25390625 66.64453125 C-56.16796875 64.1640625 -56.16796875 64.1640625 -57.87890625 61.45703125 C-58.44867188 60.57660156 -59.0184375 59.69617188 -59.60546875 58.7890625 C-65.81880138 46.93661519 -66.19762167 32.80910253 -63.4453125 19.83203125 C-59.28215644 8.76869613 -51.51724835 1.57781199 -40.953125 -3.296875 C-28.48713154 -8.18585362 -11.37232022 -6.83915965 0 0 Z " fill="#3AC988" transform="translate(442.25390625,468.35546875)"/>
<path d="M0 0 C4.62 0 9.24 0 14 0 C14 0.33 14 0.66 14 1 C9.15758367 2.33583899 5.06562383 3.25328119 0 3 C0 2.01 0 1.02 0 0 Z " fill="#49CC90" transform="translate(578,380)"/>
<path d="M0 0 C0 3 0 3 -2.1875 5.5625 C-4.81277706 7.83774012 -6.72443519 8.97053677 -10 10 C-6.66666667 6.66666667 -3.33333333 3.33333333 0 0 Z " fill="#20C278" transform="translate(460,554)"/>
<path d="M0 0 C0.71484375 1.765625 0.71484375 1.765625 1 4 C-0.43359375 5.921875 -0.43359375 5.921875 -2.4375 7.75 C-3.42556641 8.67039062 -3.42556641 8.67039062 -4.43359375 9.609375 C-5.20896484 10.29773438 -5.20896484 10.29773438 -6 11 C-6 7.39426104 -5.18292538 6.58663434 -3 3.8125 C-2.443125 3.09707031 -1.88625 2.38164063 -1.3125 1.64453125 C-0.879375 1.10183594 -0.44625 0.55914063 0 0 Z " fill="#23C278" transform="translate(470,541)"/>
<path d="M0 0 C3.317124 4.422832 3.30466674 5.71910976 3 11 C2.01 10.67 1.02 10.34 0 10 C0 6.7 0 3.4 0 0 Z " fill="#33C582" transform="translate(527,592)"/>
<path d="M0 0 C0.66 0.33 1.32 0.66 2 1 C-0.6598561 4.44216672 -3.90288286 4.99504674 -8 6 C-5.63404067 3.38499232 -3.13950774 1.61000397 0 0 Z " fill="#23C279" transform="translate(447,565)"/>
<path d="M0 0 C1 3 1 3 -0.4375 6.1875 C-1.2109375 7.5796875 -1.2109375 7.5796875 -2 9 C-2.99 9 -3.98 9 -5 9 C-3.35 6.03 -1.7 3.06 0 0 Z " fill="#1FC276" transform="translate(728,533)"/>
</svg>
